<mxfile host="Electron" modified="2024-01-08T11:31:39.015Z" agent="Mozilla/5.0 (Windows NT 10.0; Win64; x64) AppleWebKit/537.36 (KHTML, like Gecko) draw.io/22.1.2 Chrome/114.0.5735.289 Electron/25.9.4 Safari/537.36" etag="HoTn0yMqKKALVe2w7kC2" version="22.1.2" type="device">
  <diagram name="Page-1" id="aqLo5goLTsaWTMIgIr6H">
    <mxGraphModel dx="1436" dy="1006" grid="1" gridSize="10" guides="1" tooltips="1" connect="1" arrows="1" fold="1" page="0" pageScale="1" pageWidth="850" pageHeight="1100" math="1" shadow="0">
      <root>
        <mxCell id="0" />
        <mxCell id="1" parent="0" />
        <mxCell id="-Vm79UYbgd8618c4dkK5-1" value="" style="endArrow=classic;html=1;rounded=0;strokeWidth=1;fontSize=14;" parent="1" edge="1">
          <mxGeometry width="50" height="50" relative="1" as="geometry">
            <mxPoint x="40" y="280" as="sourcePoint" />
            <mxPoint x="480" y="280" as="targetPoint" />
          </mxGeometry>
        </mxCell>
        <mxCell id="-Vm79UYbgd8618c4dkK5-2" value="" style="endArrow=classic;html=1;rounded=0;strokeWidth=1;fontSize=14;" parent="1" edge="1">
          <mxGeometry width="50" height="50" relative="1" as="geometry">
            <mxPoint x="40" y="280" as="sourcePoint" />
            <mxPoint x="40" y="40" as="targetPoint" />
          </mxGeometry>
        </mxCell>
        <mxCell id="-Vm79UYbgd8618c4dkK5-4" value="" style="curved=1;endArrow=none;html=1;rounded=0;endFill=0;startArrow=none;startFill=0;strokeWidth=1;fontSize=14;" parent="1" edge="1">
          <mxGeometry width="50" height="50" relative="1" as="geometry">
            <mxPoint x="140" y="280" as="sourcePoint" />
            <mxPoint x="340" y="280" as="targetPoint" />
            <Array as="points">
              <mxPoint x="160" y="200" />
              <mxPoint x="240" y="40" />
              <mxPoint x="320" y="200" />
            </Array>
          </mxGeometry>
        </mxCell>
        <mxCell id="-Vm79UYbgd8618c4dkK5-5" value="" style="endArrow=none;dashed=1;html=1;rounded=0;strokeWidth=1;fontSize=14;" parent="1" edge="1">
          <mxGeometry width="50" height="50" relative="1" as="geometry">
            <mxPoint x="240" y="280" as="sourcePoint" />
            <mxPoint x="240" y="80" as="targetPoint" />
          </mxGeometry>
        </mxCell>
        <mxCell id="-Vm79UYbgd8618c4dkK5-7" value="$$f_0$$" style="text;html=1;align=center;verticalAlign=middle;resizable=0;points=[];autosize=1;strokeColor=none;fillColor=none;strokeWidth=1;fontSize=14;" parent="1" vertex="1">
          <mxGeometry x="210" y="280" width="70" height="30" as="geometry" />
        </mxCell>
        <mxCell id="_ipKOsotd9YyGwdcFhzM-1" value="" style="endArrow=classic;startArrow=classic;html=1;rounded=0;strokeWidth=1;fontSize=14;" parent="1" edge="1">
          <mxGeometry width="50" height="50" relative="1" as="geometry">
            <mxPoint x="140" y="320" as="sourcePoint" />
            <mxPoint x="340" y="320" as="targetPoint" />
          </mxGeometry>
        </mxCell>
        <mxCell id="_ipKOsotd9YyGwdcFhzM-2" value="$$B$$" style="text;html=1;align=center;verticalAlign=middle;resizable=0;points=[];autosize=1;strokeColor=none;fillColor=none;strokeWidth=1;fontSize=14;" parent="1" vertex="1">
          <mxGeometry x="210" y="320" width="60" height="30" as="geometry" />
        </mxCell>
        <mxCell id="_ipKOsotd9YyGwdcFhzM-3" value="Frequency" style="text;html=1;align=center;verticalAlign=middle;resizable=0;points=[];autosize=1;strokeColor=none;fillColor=none;strokeWidth=1;fontSize=14;" parent="1" vertex="1">
          <mxGeometry x="390" y="280" width="90" height="30" as="geometry" />
        </mxCell>
        <mxCell id="_ipKOsotd9YyGwdcFhzM-4" value="Power spectral&lt;br&gt;density" style="text;html=1;align=center;verticalAlign=middle;resizable=0;points=[];autosize=1;strokeColor=none;fillColor=none;strokeWidth=1;fontSize=14;" parent="1" vertex="1">
          <mxGeometry x="-20" y="-10" width="120" height="50" as="geometry" />
        </mxCell>
      </root>
    </mxGraphModel>
  </diagram>
</mxfile>
